# 3ds Max Wavefront OBJ Exporter v0.97b - (c)2007 guruware
# File Created: 16.01.2019 04:11:06

mtllib enemy_bulit_effect.mtl

#
# object Plane001
#

v  -500.0000 0.0000 -500.0000
v  -500.0000 0.0000 500.0000
v  500.0000 0.0000 -500.0000
v  500.0000 0.0000 500.0000
# 4 vertices

vn 0.0000 1.0000 -0.0000
# 1 vertex normals

vt 0.0000 1.0000 0.0000
vt 0.0000 0.0000 0.0000
vt 1.0000 1.0000 0.0000
vt 1.0000 0.0000 0.0000
# 4 texture coords

o Plane001
g Plane001
usemtl Material__122
s 1
f 1/1/1 2/2/1 3/3/1 
f 4/4/1 3/3/1 2/2/1 
# 2 faces

#
# object Plane002
#

v  -500.0000 0.0000 -500.0000
v  -500.0000 0.0000 500.0000
v  500.0000 0.0000 -500.0000
v  500.0000 0.0000 500.0000
# 4 vertices

vn 0.0000 1.0000 -0.0000
# 1 vertex normals

vt 0.0000 1.0000 0.0000
vt 0.0000 0.0000 0.0000
vt 1.0000 1.0000 0.0000
vt 1.0000 0.0000 0.0000
# 4 texture coords

o Plane002
g Plane002
usemtl Material__123
s 1
f 5/5/2 6/6/2 7/7/2 
f 8/8/2 7/7/2 6/6/2 
# 2 faces

#
# object Plane003
#

v  -529.2549 0.0000 -498.3903
v  -529.2549 0.0000 501.6097
v  470.7451 0.0000 -498.3903
v  470.7451 0.0000 501.6097
# 4 vertices

vn 0.0000 1.0000 -0.0000
# 1 vertex normals

vt 0.0000 1.0000 0.0000
vt 0.0000 0.0000 0.0000
vt 1.0000 1.0000 0.0000
vt 1.0000 0.0000 0.0000
# 4 texture coords

o Plane003
g Plane003
usemtl Material__124
s 1
f 9/9/3 10/10/3 11/11/3 
f 12/12/3 11/11/3 10/10/3 
# 2 faces

#
# object Plane004
#

v  -522.8326 0.0000 -500.0000
v  -522.8326 0.0000 500.0000
v  477.1674 0.0000 -500.0000
v  477.1674 0.0000 500.0000
# 4 vertices

vn 0.0000 1.0000 -0.0000
# 1 vertex normals

vt 0.0000 1.0000 0.0000
vt 0.0000 0.0000 0.0000
vt 1.0000 1.0000 0.0000
vt 1.0000 0.0000 0.0000
# 4 texture coords

o Plane004
g Plane004
usemtl Material__125
s 1
f 13/13/4 14/14/4 15/15/4 
f 16/16/4 15/15/4 14/14/4 
# 2 faces

#
# object Plane005
#

v  -519.2542 0.0000 -500.0000
v  -519.2542 0.0000 500.0000
v  480.7458 0.0000 -500.0000
v  480.7458 0.0000 500.0000
# 4 vertices

vn 0.0000 1.0000 -0.0000
# 1 vertex normals

vt 0.0000 1.0000 0.0000
vt 0.0000 0.0000 0.0000
vt 1.0000 1.0000 0.0000
vt 1.0000 0.0000 0.0000
# 4 texture coords

o Plane005
g Plane005
usemtl Material__126
s 1
f 17/17/5 18/18/5 19/19/5 
f 20/20/5 19/19/5 18/18/5 
# 2 faces

